<svg width="116" height="15" viewBox="0 0 116 15" fill="none" xmlns="http://www.w3.org/2000/svg">
<g clip-path="url(#clip0_1749_3331)">
<path d="M113.231 14.2176V0.98954L116 -0.390015V14.2176H113.231Z" fill="white"/>
<path d="M107.772 14.2176V13.5132C107.648 13.6436 107.507 13.7643 107.351 13.8752C107.194 13.9795 107.005 14.0806 106.783 14.1785C106.562 14.2698 106.337 14.335 106.108 14.3742C105.88 14.4198 105.645 14.4426 105.404 14.4426C104.915 14.4426 104.435 14.3676 103.966 14.2176C103.496 14.0611 103.075 13.8295 102.703 13.5229C102.338 13.2164 102.041 12.8283 101.813 12.3586C101.591 11.889 101.48 11.3346 101.48 10.6953C101.48 10.1148 101.591 9.60606 101.813 9.16903C102.035 8.73201 102.338 8.37 102.723 8.083C103.108 7.78948 103.558 7.57097 104.073 7.42747C104.595 7.27745 105.153 7.20243 105.746 7.20243C106.235 7.20243 106.64 7.24483 106.959 7.32963C107.279 7.41442 107.55 7.51226 107.772 7.62315V7.10459C107.772 6.71323 107.641 6.39362 107.38 6.14575C107.119 5.89137 106.747 5.76417 106.265 5.76417C105.652 5.76417 105.153 5.80983 104.768 5.90115C104.383 5.98595 103.923 6.17184 103.388 6.45884L102.322 4.54117C102.987 4.1498 103.617 3.87585 104.21 3.7193C104.81 3.55623 105.495 3.4747 106.265 3.4747C106.904 3.4747 107.485 3.55623 108.006 3.7193C108.535 3.88237 108.985 4.12045 109.357 4.43354C109.735 4.74663 110.025 5.13147 110.227 5.58806C110.436 6.04465 110.54 6.56973 110.54 7.1633V14.2176H107.772ZM107.772 9.805C107.654 9.73325 107.533 9.67128 107.409 9.6191C107.286 9.5604 107.149 9.51474 106.999 9.48212C106.849 9.44299 106.679 9.41364 106.49 9.39407C106.307 9.3745 106.092 9.36471 105.844 9.36471C105.322 9.36471 104.924 9.48212 104.65 9.71694C104.383 9.94524 104.249 10.2714 104.249 10.6953C104.249 10.878 104.275 11.0541 104.328 11.2237C104.386 11.3933 104.478 11.5433 104.601 11.6738C104.732 11.7977 104.898 11.8988 105.1 11.9771C105.303 12.0553 105.551 12.0945 105.844 12.0945C106.072 12.0945 106.284 12.0684 106.48 12.0162C106.682 11.964 106.865 11.8955 107.028 11.8107C107.198 11.7194 107.344 11.6151 107.468 11.4976C107.592 11.3802 107.693 11.2596 107.772 11.1356V9.805Z" fill="white"/>
<path d="M99.2985 13.7969C99.0702 13.9795 98.7636 14.1328 98.3788 14.2567C97.9939 14.3807 97.5863 14.4426 97.1558 14.4426C96.7318 14.4426 96.347 14.3644 96.0013 14.2078C95.6555 14.0513 95.3588 13.8328 95.1109 13.5523C94.8696 13.2653 94.6804 12.9294 94.5434 12.5445C94.413 12.1597 94.3477 11.7357 94.3477 11.2726V6.30229H92.5866V3.69973H94.3477V0.98954L97.1166 -0.390015V3.69973H99.6409V6.30229H97.1166V10.529C97.1166 10.7834 97.1395 10.9921 97.1851 11.1552C97.2308 11.3183 97.296 11.4487 97.3808 11.5466C97.4656 11.6379 97.57 11.7031 97.6939 11.7422C97.8244 11.7749 97.9711 11.7912 98.1342 11.7912C98.382 11.7912 98.6234 11.7292 98.8582 11.6053C99.0995 11.4813 99.38 11.2759 99.6996 10.9889L99.2985 13.7969Z" fill="white"/>
<path d="M90.6201 6.92848C90.3984 6.72628 90.1538 6.56321 89.8863 6.43928C89.6189 6.30882 89.3286 6.24359 89.0155 6.24359C88.3633 6.24359 87.9034 6.43275 87.636 6.81107C87.3686 7.18287 87.2348 7.7536 87.2348 8.52328V14.2176H84.4659V3.69973H87.2348V4.3944C87.3457 4.277 87.4762 4.16285 87.6262 4.05196C87.7827 3.94108 87.9523 3.83997 88.135 3.74866C88.3241 3.65081 88.5263 3.58233 88.7416 3.54319C88.9568 3.49753 89.1753 3.4747 89.3971 3.4747C89.8472 3.4747 90.2385 3.55297 90.5712 3.70952C90.9039 3.85954 91.1615 4.02913 91.3441 4.21829L90.6201 6.92848Z" fill="white"/>
<path d="M82.3134 8.96357C82.3134 9.77238 82.1928 10.5127 81.9514 11.1846C81.7166 11.8564 81.3839 12.4337 80.9534 12.9163C80.5295 13.399 80.024 13.7741 79.4369 14.0415C78.8564 14.3089 78.2237 14.4426 77.5388 14.4426C76.8539 14.4426 76.2212 14.3089 75.6407 14.0415C75.0602 13.7741 74.5579 13.399 74.1339 12.9163C73.7165 12.4337 73.3871 11.8564 73.1457 11.1846C72.9109 10.5127 72.7935 9.77238 72.7935 8.96357C72.7935 8.16127 72.9109 7.42421 73.1457 6.75237C73.3871 6.074 73.7165 5.49348 74.1339 5.0108C74.5579 4.52812 75.0602 4.15306 75.6407 3.88563C76.2212 3.61168 76.8539 3.4747 77.5388 3.4747C78.2237 3.4747 78.8564 3.61168 79.4369 3.88563C80.024 4.15306 80.5295 4.52812 80.9534 5.0108C81.3839 5.49348 81.7166 6.074 81.9514 6.75237C82.1928 7.42421 82.3134 8.16127 82.3134 8.96357ZM79.5054 8.96357C79.5054 8.56568 79.463 8.19715 79.3782 7.85797C79.2999 7.51226 79.1793 7.21222 79.0162 6.95783C78.8531 6.70345 78.6477 6.5045 78.3998 6.361C78.1585 6.2175 77.8715 6.14575 77.5388 6.14575C77.2061 6.14575 76.9191 6.2175 76.6778 6.361C76.4365 6.5045 76.2343 6.70345 76.0712 6.95783C75.9146 7.2057 75.7972 7.50248 75.719 7.84818C75.6407 8.18736 75.6015 8.55916 75.6015 8.96357C75.6015 9.36798 75.6407 9.74303 75.719 10.0887C75.7972 10.4344 75.9146 10.7312 76.0712 10.9791C76.2343 11.227 76.4365 11.4226 76.6778 11.5661C76.9191 11.7031 77.2061 11.7716 77.5388 11.7716C77.8715 11.7716 78.1585 11.6966 78.3998 11.5466C78.6477 11.39 78.8531 11.1813 79.0162 10.9204C79.1793 10.6595 79.2999 10.3594 79.3782 10.0202C79.463 9.68107 79.5054 9.32884 79.5054 8.96357Z" fill="white"/>
<path d="M71.551 4.63901C71.551 5.45435 71.4205 6.15228 71.1596 6.7328C70.9052 7.31333 70.5497 7.78948 70.0931 8.16128C69.6431 8.53307 69.1082 8.80703 68.4885 8.98314C67.8689 9.15926 67.197 9.24731 66.473 9.24731H63.391V14.2176H60.583V0.187256H66.7176C67.3764 0.187256 67.9993 0.278574 68.5864 0.46121C69.1734 0.643846 69.6855 0.921062 70.1225 1.29286C70.566 1.66465 70.915 2.13103 71.1694 2.69198C71.4238 3.24641 71.551 3.89542 71.551 4.63901ZM68.6647 4.69772C68.6647 4.41072 68.6223 4.15633 68.5375 3.93456C68.4527 3.70626 68.3157 3.5171 68.1265 3.36708C67.9439 3.21706 67.7254 3.10617 67.471 3.03442C67.2166 2.95615 66.9329 2.91701 66.6198 2.91701H63.391V6.52734H66.6589C67.3112 6.52734 67.8069 6.37732 68.1461 6.07727C68.4918 5.7707 68.6647 5.31085 68.6647 4.69772Z" fill="white"/>
<path d="M48.9498 14.2176V13.5132C48.8258 13.6436 48.6856 13.7643 48.529 13.8752C48.3725 13.9795 48.1833 14.0806 47.9616 14.1785C47.7398 14.2698 47.5148 14.335 47.2865 14.3742C47.0582 14.4198 46.8234 14.4426 46.582 14.4426C46.0928 14.4426 45.6134 14.3676 45.1438 14.2176C44.6741 14.0611 44.2534 13.8295 43.8816 13.5229C43.5163 13.2164 43.2196 12.8283 42.9913 12.3586C42.7695 11.889 42.6586 11.3346 42.6586 10.6953C42.6586 10.1148 42.7695 9.60606 42.9913 9.16903C43.213 8.73201 43.5163 8.37 43.9012 8.083C44.286 7.78948 44.7361 7.57097 45.2514 7.42747C45.7732 7.27745 46.3309 7.20243 46.9245 7.20243C47.4137 7.20243 47.8181 7.24483 48.1377 7.32963C48.4573 7.41442 48.728 7.51226 48.9498 7.62315V7.10459C48.9498 6.71323 48.8193 6.39362 48.5584 6.14575C48.2975 5.89137 47.9257 5.76417 47.443 5.76417C46.8299 5.76417 46.3309 5.80983 45.946 5.90115C45.5612 5.98595 45.1014 6.17184 44.5665 6.45884L43.5 4.54117C44.1653 4.1498 44.7948 3.87585 45.3884 3.7193C45.9884 3.55623 46.6733 3.4747 47.443 3.4747C48.0822 3.4747 48.6628 3.55623 49.1846 3.7193C49.7129 3.88237 50.163 4.12045 50.5348 4.43354C50.9131 4.74663 51.2034 5.13147 51.4056 5.58806C51.6143 6.04465 51.7187 6.56973 51.7187 7.1633V14.2176H48.9498ZM48.9498 9.805C48.8324 9.73325 48.7117 9.67128 48.5877 9.6191C48.4638 9.5604 48.3268 9.51474 48.1768 9.48212C48.0268 9.44299 47.8572 9.41364 47.668 9.39407C47.4854 9.3745 47.2702 9.36471 47.0223 9.36471C46.5005 9.36471 46.1026 9.48212 45.8286 9.71694C45.5612 9.94524 45.4275 10.2714 45.4275 10.6953C45.4275 10.878 45.4536 11.0541 45.5058 11.2237C45.5645 11.3933 45.6558 11.5433 45.7797 11.6738C45.9102 11.7977 46.0765 11.8988 46.2787 11.9771C46.4809 12.0553 46.7288 12.0945 47.0223 12.0945C47.2506 12.0945 47.4626 12.0684 47.6583 12.0162C47.8605 11.964 48.0431 11.8955 48.2062 11.8107C48.3758 11.7194 48.5225 11.6151 48.6465 11.4976C48.7704 11.3802 48.8715 11.2596 48.9498 11.1356V9.805Z" fill="white"/>
<path d="M41.0931 8.96357C41.0931 9.16577 41.0898 9.33862 41.0833 9.48212C41.0768 9.62562 41.067 9.74956 41.054 9.85392H34.7628C34.7889 10.2127 34.8672 10.5192 34.9976 10.7736C35.1346 11.0215 35.3009 11.2237 35.4966 11.3802C35.6988 11.5368 35.9238 11.6509 36.1717 11.7227C36.4196 11.7944 36.6707 11.8303 36.9251 11.8303C37.1142 11.8303 37.2903 11.8173 37.4534 11.7912C37.6165 11.7586 37.7796 11.7096 37.9426 11.6444C38.1122 11.5727 38.259 11.4911 38.3829 11.3998C38.5134 11.3085 38.6275 11.2074 38.7253 11.0965L40.6919 12.7304C40.4832 13.0044 40.2354 13.249 39.9484 13.4642C39.6614 13.673 39.3515 13.8523 39.0189 14.0024C38.6862 14.1459 38.3405 14.2535 37.9818 14.3252C37.6295 14.4035 37.2773 14.4426 36.9251 14.4426C36.3446 14.4426 35.8227 14.3709 35.3596 14.2274C34.903 14.0904 34.5019 13.9045 34.1562 13.6697C33.8105 13.4349 33.5039 13.1642 33.2365 12.8576C32.969 12.5445 32.744 12.1988 32.5614 11.8205C32.3787 11.4357 32.2352 11.0084 32.1309 10.5388C32.0265 10.0626 31.9743 9.53757 31.9743 8.96357C31.9743 8.16127 32.0917 7.42421 32.3266 6.75237C32.5679 6.074 32.8973 5.49348 33.3148 5.0108C33.7387 4.52812 34.2345 4.15306 34.8019 3.88563C35.3759 3.61168 35.9956 3.4747 36.6609 3.4747C37.3654 3.4747 37.9915 3.62146 38.5395 3.91498C39.0874 4.20198 39.5505 4.59661 39.9288 5.09886C40.3071 5.59458 40.5941 6.17511 40.7898 6.84042C40.992 7.50574 41.0931 8.21346 41.0931 8.96357ZM38.4025 7.76991C38.3829 7.53509 38.3307 7.30354 38.2459 7.07524C38.1677 6.84695 38.0502 6.64474 37.8937 6.46863C37.7437 6.29251 37.5545 6.15228 37.3262 6.04791C37.1045 5.93703 36.837 5.88158 36.5239 5.88158C36.2695 5.88158 36.0412 5.9305 35.839 6.02834C35.6434 6.12619 35.4705 6.2599 35.3205 6.42949C35.177 6.59908 35.0596 6.79803 34.9683 7.02632C34.8835 7.25462 34.828 7.50248 34.8019 7.76991H38.4025Z" fill="white"/>
<path d="M30.3894 6.92848C30.1676 6.72628 29.923 6.56321 29.6555 6.43928C29.3881 6.30882 29.0979 6.24359 28.7848 6.24359C28.1325 6.24359 27.6726 6.43275 27.4052 6.81107C27.1378 7.18287 27.0041 7.7536 27.0041 8.52328V14.2176H24.2352V3.69973H27.0041V4.3944C27.1149 4.277 27.2454 4.16285 27.3954 4.05196C27.552 3.94108 27.7216 3.83997 27.9042 3.74866C28.0934 3.65081 28.2956 3.58233 28.5108 3.54319C28.7261 3.49753 28.9446 3.4747 29.1663 3.4747C29.6164 3.4747 30.0078 3.55297 30.3404 3.70952C30.6731 3.85954 30.9307 4.02913 31.1134 4.21829L30.3894 6.92848Z" fill="white"/>
<path d="M22.0827 8.96357C22.0827 9.77238 21.962 10.5127 21.7207 11.1846C21.4858 11.8564 21.1532 12.4337 20.7227 12.9163C20.2987 13.399 19.7932 13.7741 19.2061 14.0415C18.6256 14.3089 17.9929 14.4426 17.308 14.4426C16.6232 14.4426 15.9904 14.3089 15.4099 14.0415C14.8294 13.7741 14.3272 13.399 13.9032 12.9163C13.4857 12.4337 13.1563 11.8564 12.915 11.1846C12.6802 10.5127 12.5628 9.77238 12.5628 8.96357C12.5628 8.16127 12.6802 7.42421 12.915 6.75237C13.1563 6.074 13.4857 5.49348 13.9032 5.0108C14.3272 4.52812 14.8294 4.15306 15.4099 3.88563C15.9904 3.61168 16.6232 3.4747 17.308 3.4747C17.9929 3.4747 18.6256 3.61168 19.2061 3.88563C19.7932 4.15306 20.2987 4.52812 20.7227 5.0108C21.1532 5.49348 21.4858 6.074 21.7207 6.75237C21.962 7.42421 22.0827 8.16127 22.0827 8.96357ZM19.2746 8.96357C19.2746 8.56568 19.2322 8.19715 19.1474 7.85797C19.0692 7.51226 18.9485 7.21222 18.7854 6.95783C18.6224 6.70345 18.4169 6.5045 18.169 6.361C17.9277 6.2175 17.6407 6.14575 17.308 6.14575C16.9754 6.14575 16.6884 6.2175 16.447 6.361C16.2057 6.5045 16.0035 6.70345 15.8404 6.95783C15.6839 7.2057 15.5665 7.50248 15.4882 7.84818C15.4099 8.18736 15.3708 8.55916 15.3708 8.96357C15.3708 9.36798 15.4099 9.74303 15.4882 10.0887C15.5665 10.4344 15.6839 10.7312 15.8404 10.9791C16.0035 11.227 16.2057 11.4226 16.447 11.5661C16.6884 11.7031 16.9754 11.7716 17.308 11.7716C17.6407 11.7716 17.9277 11.6966 18.169 11.5466C18.4169 11.39 18.6224 11.1813 18.7854 10.9204C18.9485 10.6595 19.0692 10.3594 19.1474 10.0202C19.2322 9.68107 19.2746 9.32884 19.2746 8.96357Z" fill="white"/>
<path d="M12.2301 14.2176H8.86437L5.04858 7.44704L2.80803 10.0887V14.2176H0V0.187256H2.80803V6.28274L7.79791 0.187256H11.1832L7.07389 5.04016L12.2301 14.2176Z" fill="white"/>
</g>
<defs>
<clipPath id="clip0_1749_3331">
<rect width="116" height="15" fill="white"/>
</clipPath>
</defs>
</svg>
