<svg width="20" height="20" viewBox="0 0 20 20" fill="none" xmlns="http://www.w3.org/2000/svg">
<mask id="mask0_947_29207" style="mask-type:alpha" maskUnits="userSpaceOnUse" x="0" y="0" width="20" height="20">
<rect width="20" height="20" fill="#D9D9D9"/>
</mask>
<g mask="url(#mask0_947_29207)">
<path d="M4.42312 15.4168C4.00881 15.4168 3.65416 15.2693 3.35916 14.9743C3.06416 14.6793 2.91666 14.3247 2.91666 13.9104V12.1316C2.91666 11.7173 3.06416 11.3627 3.35916 11.0677C3.65416 10.7727 4.00881 10.6252 4.42312 10.6252H15.5769C15.9912 10.6252 16.3458 10.7727 16.6408 11.0677C16.9358 11.3627 17.0833 11.7173 17.0833 12.1316V13.9104C17.0833 14.3247 16.9358 14.6793 16.6408 14.9743C16.3458 15.2693 15.9912 15.4168 15.5769 15.4168H4.42312ZM4.42312 9.37516C4.00881 9.37516 3.65416 9.22766 3.35916 8.93266C3.06416 8.63766 2.91666 8.28301 2.91666 7.8687V6.08995C2.91666 5.67565 3.06416 5.321 3.35916 5.026C3.65416 4.731 4.00881 4.5835 4.42312 4.5835H15.5769C15.9912 4.5835 16.3458 4.731 16.6408 5.026C16.9358 5.321 17.0833 5.67565 17.0833 6.08995V7.8687C17.0833 8.28301 16.9358 8.63766 16.6408 8.93266C16.3458 9.22766 15.9912 9.37516 15.5769 9.37516H4.42312Z" fill="white"/>
</g>
</svg>
