<svg width="28" height="28" viewBox="0 0 28 28" fill="none" xmlns="http://www.w3.org/2000/svg">
<path opacity="0.4" d="M19.5417 4.15398V2.33398C19.5417 1.85565 19.145 1.45898 18.6667 1.45898C18.1883 1.45898 17.7917 1.85565 17.7917 2.33398V4.08398H10.2083V2.33398C10.2083 1.85565 9.81165 1.45898 9.33332 1.45898C8.85499 1.45898 8.45832 1.85565 8.45832 2.33398V4.15398C5.30832 4.44565 3.78 6.32398 3.54666 9.11232C3.52333 9.45065 3.80333 9.73065 4.13 9.73065H23.87C24.2083 9.73065 24.4883 9.43898 24.4533 9.11232C24.22 6.32398 22.6917 4.44565 19.5417 4.15398Z" fill="#2E2E38"/>
<path d="M23.3333 11.4805C23.975 11.4805 24.5 12.0055 24.5 12.6471V19.8338C24.5 23.3338 22.75 25.6671 18.6667 25.6671H9.33332C5.24998 25.6671 3.49998 23.3338 3.49998 19.8338V12.6471C3.49998 12.0055 4.02498 11.4805 4.66665 11.4805H23.3333Z" fill="#2E2E38"/>
<path d="M17.3133 17.4903L16.73 18.0853H16.7183L13.1833 21.6203C13.0316 21.772 12.7166 21.9353 12.495 21.9587L10.92 22.192C10.3483 22.2737 9.95166 21.8653 10.0333 21.3053L10.255 19.7187C10.29 19.497 10.4416 19.1937 10.5933 19.0303L14.14 15.4953L14.7233 14.9003C15.1083 14.5153 15.54 14.2354 16.0067 14.2354C16.4033 14.2354 16.835 14.422 17.3133 14.9003C18.3633 15.9503 18.025 16.7787 17.3133 17.4903Z" fill="#FEE433"/>
</svg>
