<svg width="20" height="21" viewBox="0 0 20 21" fill="none" xmlns="http://www.w3.org/2000/svg">
<mask id="mask0_970_37753" style="mask-type:alpha" maskUnits="userSpaceOnUse" x="0" y="0" width="20" height="21">
<rect y="0.5" width="20" height="20" fill="#D9D9D9"/>
</mask>
<g mask="url(#mask0_970_37753)">
<path d="M10 13.6571L6.44229 10.0994L7.32063 9.19563L9.375 11.25V4.25H10.625V11.25L12.6794 9.19563L13.5577 10.0994L10 13.6571ZM5.25646 16.75C4.83549 16.75 4.47917 16.6042 4.1875 16.3125C3.89583 16.0208 3.75 15.6645 3.75 15.2435V12.984H5V15.2435C5 15.3077 5.02674 15.3665 5.08021 15.4198C5.13354 15.4733 5.19229 15.5 5.25646 15.5H14.7435C14.8077 15.5 14.8665 15.4733 14.9198 15.4198C14.9733 15.3665 15 15.3077 15 15.2435V12.984H16.25V15.2435C16.25 15.6645 16.1042 16.0208 15.8125 16.3125C15.5208 16.6042 15.1645 16.75 14.7435 16.75H5.25646Z" fill="#2E2E38"/>
</g>
</svg>
