<svg width="20" height="20" viewBox="0 0 20 20" fill="none" xmlns="http://www.w3.org/2000/svg">
<mask id="mask0_947_27364" style="mask-type:alpha" maskUnits="userSpaceOnUse" x="0" y="0" width="20" height="20">
<rect width="20" height="20" fill="#D9D9D9"/>
</mask>
<g mask="url(#mask0_947_27364)">
<path d="M13.3815 8.33317C13.5586 8.33317 13.707 8.27324 13.8267 8.15338C13.9465 8.03352 14.0065 7.88505 14.0065 7.70796C14.0065 7.53074 13.9465 7.38234 13.8267 7.26275C13.707 7.14303 13.5586 7.08317 13.3815 7.08317H10.625C10.4479 7.08317 10.2995 7.1431 10.1796 7.26296C10.0599 7.38282 10 7.5313 10 7.70838C10 7.8856 10.0599 8.034 10.1796 8.15359C10.2995 8.27331 10.4479 8.33317 10.625 8.33317H13.3815ZM13.3815 12.9165C13.5586 12.9165 13.707 12.8566 13.8267 12.7367C13.9465 12.6169 14.0065 12.4684 14.0065 12.2913C14.0065 12.1141 13.9465 11.9657 13.8267 11.8461C13.707 11.7264 13.5586 11.6665 13.3815 11.6665H10.625C10.4479 11.6665 10.2995 11.7264 10.1796 11.8463C10.0599 11.9662 10 12.1146 10 12.2917C10 12.4689 10.0599 12.6173 10.1796 12.7369C10.2995 12.8566 10.4479 12.9165 10.625 12.9165H13.3815ZM7.50002 9.05421C7.87016 9.05421 8.18703 8.92241 8.45065 8.6588C8.71426 8.39518 8.84606 8.07831 8.84606 7.70817C8.84606 7.33803 8.71426 7.02116 8.45065 6.75755C8.18703 6.49393 7.87016 6.36213 7.50002 6.36213C7.12988 6.36213 6.81301 6.49393 6.5494 6.75755C6.28578 7.02116 6.15398 7.33803 6.15398 7.70817C6.15398 8.07831 6.28578 8.39518 6.5494 8.6588C6.81301 8.92241 7.12988 9.05421 7.50002 9.05421ZM7.50002 13.6375C7.87016 13.6375 8.18703 13.5057 8.45065 13.2421C8.71426 12.9785 8.84606 12.6616 8.84606 12.2915C8.84606 11.9214 8.71426 11.6045 8.45065 11.3409C8.18703 11.0773 7.87016 10.9455 7.50002 10.9455C7.12988 10.9455 6.81301 11.0773 6.5494 11.3409C6.28578 11.6045 6.15398 11.9214 6.15398 12.2915C6.15398 12.6616 6.28578 12.9785 6.5494 13.2421C6.81301 13.5057 7.12988 13.6375 7.50002 13.6375ZM4.42315 17.0832C4.00217 17.0832 3.64585 16.9373 3.35419 16.6457C3.06252 16.354 2.91669 15.9977 2.91669 15.5767V4.42296C2.91669 4.00199 3.06252 3.64567 3.35419 3.354C3.64585 3.06234 4.00217 2.9165 4.42315 2.9165H15.5769C15.9979 2.9165 16.3542 3.06234 16.6459 3.354C16.9375 3.64567 17.0834 4.00199 17.0834 4.42296V15.5767C17.0834 15.9977 16.9375 16.354 16.6459 16.6457C16.3542 16.9373 15.9979 17.0832 15.5769 17.0832H4.42315Z" fill="white"/>
</g>
</svg>
