<svg width="32" height="32" viewBox="0 0 32 32" fill="none" xmlns="http://www.w3.org/2000/svg">
<mask id="mask0_947_28929" style="mask-type:alpha" maskUnits="userSpaceOnUse" x="0" y="0" width="32" height="32">
<rect width="32" height="32" fill="#D9D9D9"/>
</mask>
<g mask="url(#mask0_947_28929)">
<path d="M20.4001 13.5515L24.9974 8.9335L24.1667 8.10283L20.4001 11.8695L18.5001 9.98216L17.6694 10.8335L20.4001 13.5515ZM4.66675 26.3335V24.3335H20.0001V26.3335H4.66675ZM21.3354 17.0002C19.5836 17.0002 18.0899 16.3828 16.8541 15.1482C15.6181 13.9135 15.0001 12.4204 15.0001 10.6688C15.0001 8.91705 15.6174 7.42327 16.8521 6.1875C18.0867 4.9515 19.5799 4.3335 21.3314 4.3335C23.0832 4.3335 24.577 4.95083 25.8127 6.1855C27.0487 7.42016 27.6667 8.91327 27.6667 10.6648C27.6667 12.4166 27.0494 13.9104 25.8147 15.1462C24.5801 16.3822 23.087 17.0002 21.3354 17.0002ZM4.66675 15.6668V13.6668H12.4514C12.5727 14.0362 12.7099 14.3853 12.8627 14.7142C13.0159 15.0433 13.1984 15.3608 13.4104 15.6668H4.66675ZM4.66675 21.0002V19.0002H17.1104C17.5446 19.2344 18.0036 19.4335 18.4874 19.5975C18.9712 19.7617 19.4754 19.8797 20.0001 19.9515V21.0002H4.66675Z" fill="#747480"/>
</g>
</svg>
