<svg width="28" height="28" viewBox="0 0 28 28" fill="none" xmlns="http://www.w3.org/2000/svg">
<path opacity="0.4" d="M14 13.9997C17.2217 13.9997 19.8333 11.388 19.8333 8.16634C19.8333 4.94468 17.2217 2.33301 14 2.33301C10.7783 2.33301 8.16667 4.94468 8.16667 8.16634C8.16667 11.388 10.7783 13.9997 14 13.9997Z" fill="#2E2E38"/>
<path d="M14 16.917C8.155 16.917 3.39497 20.837 3.39497 25.667C3.39497 25.9937 3.65164 26.2503 3.97831 26.2503H24.0217C24.3484 26.2503 24.605 25.9937 24.605 25.667C24.605 20.837 19.845 16.917 14 16.917Z" fill="#2E2E38"/>
<path d="M26.565 24.1264L25.6783 23.2397C26.145 22.5397 26.4134 21.6997 26.4134 20.8014C26.4134 18.3397 24.4183 16.3447 21.9567 16.3447C19.495 16.3447 17.5 18.3397 17.5 20.8014C17.5 23.2631 19.495 25.2581 21.9567 25.2581C22.855 25.2581 23.695 24.9897 24.395 24.5231L25.2816 25.4097C25.4566 25.5848 25.69 25.6781 25.9233 25.6781C26.1566 25.6781 26.39 25.5848 26.565 25.4097C26.9267 25.0481 26.9267 24.4764 26.565 24.1264Z" fill="#FEE433"/>
</svg>
