<svg width="20" height="20" viewBox="0 0 20 20" fill="none" xmlns="http://www.w3.org/2000/svg">
<g opacity="0.8">
<mask id="mask0_1119_2159" style="mask-type:alpha" maskUnits="userSpaceOnUse" x="0" y="0" width="20" height="20">
<rect width="20" height="20" fill="#D9D9D9"/>
</mask>
<g mask="url(#mask0_1119_2159)">
<path d="M15.5769 15.4167H6.92314C6.50216 15.4167 6.14584 15.2708 5.85418 14.9792C5.56251 14.6875 5.41668 14.3312 5.41668 13.9102V2.75646C5.41668 2.33549 5.56251 1.97917 5.85418 1.6875C6.14584 1.39583 6.50216 1.25 6.92314 1.25H12.7083L17.0833 5.625V13.9102C17.0833 14.3312 16.9375 14.6875 16.6458 14.9792C16.3542 15.2708 15.9979 15.4167 15.5769 15.4167ZM12.0833 6.25V2.5H6.92314C6.85897 2.5 6.80022 2.52674 6.74689 2.58021C6.69341 2.63354 6.66668 2.69229 6.66668 2.75646V13.9102C6.66668 13.9744 6.69341 14.0331 6.74689 14.0865C6.80022 14.1399 6.85897 14.1667 6.92314 14.1667H15.5769C15.6411 14.1667 15.6998 14.1399 15.7531 14.0865C15.8066 14.0331 15.8333 13.9744 15.8333 13.9102V6.25H12.0833ZM3.5898 18.75C3.16883 18.75 2.81251 18.6042 2.52084 18.3125C2.22918 18.0208 2.08334 17.6645 2.08334 17.2435V6.25H3.33334V17.2435C3.33334 17.3077 3.36008 17.3665 3.41355 17.4198C3.46689 17.4733 3.52564 17.5 3.5898 17.5H12.0833V18.75H3.5898Z" fill="white"/>
</g>
</g>
</svg>
