<svg width="28" height="28" viewBox="0 0 28 28" fill="none" xmlns="http://www.w3.org/2000/svg">
<path d="M25.27 12.1806L24.1266 17.0572C23.1466 21.2689 21.21 22.9722 17.57 22.6222C16.9866 22.5756 16.3566 22.4706 15.68 22.3072L13.72 21.8406C8.85498 20.6856 7.34998 18.2822 8.49331 13.4056L9.63664 8.51725C9.86998 7.52558 10.15 6.66225 10.5 5.95058C11.865 3.12725 14.1866 2.36891 18.0833 3.29058L20.0316 3.74558C24.92 4.88891 26.4133 7.30391 25.27 12.1806Z" fill="#2E2E38"/>
<path opacity="0.4" d="M17.57 22.6219C16.8467 23.1119 15.9367 23.5202 14.8283 23.8819L12.985 24.4885C8.35332 25.9819 5.91499 24.7335 4.40999 20.1019L2.91665 15.4935C1.42332 10.8619 2.65999 8.41186 7.29165 6.91853L9.13499 6.31186C9.61332 6.1602 10.0683 6.03186 10.5 5.9502C10.15 6.66186 9.86999 7.5252 9.63665 8.51686L8.49332 13.4052C7.34999 18.2819 8.85499 20.6852 13.72 21.8402L15.68 22.3069C16.3567 22.4702 16.9867 22.5752 17.57 22.6219Z" fill="#2E2E38"/>
<path d="M20.405 12.2624C20.335 12.2624 20.265 12.2507 20.1833 12.239L14.525 10.804C14.0583 10.6874 13.7783 10.2091 13.895 9.74238C14.0116 9.27572 14.49 8.99572 14.9566 9.11238L20.615 10.5474C21.0816 10.664 21.3616 11.1424 21.245 11.609C21.1516 11.994 20.79 12.2624 20.405 12.2624Z" fill="#FEE433"/>
<path d="M16.9867 16.2063C16.9167 16.2063 16.8467 16.1947 16.765 16.183L13.37 15.3197C12.9033 15.203 12.6233 14.7247 12.74 14.258C12.8567 13.7913 13.335 13.5113 13.8017 13.628L17.1967 14.4913C17.6633 14.608 17.9433 15.0863 17.8267 15.553C17.7333 15.9497 17.3833 16.2063 16.9867 16.2063Z" fill="#FEE433"/>
</svg>
