<svg width="28" height="28" viewBox="0 0 28 28" fill="none" xmlns="http://www.w3.org/2000/svg">
<path opacity="0.4" d="M16.7416 2.33398H11.2583C10.045 2.33398 9.05331 3.31398 9.05331 4.52732V5.62398C9.05331 6.83732 10.0333 7.81732 11.2466 7.81732H16.7416C17.955 7.81732 18.935 6.83732 18.935 5.62398V4.52732C18.9466 3.31398 17.955 2.33398 16.7416 2.33398Z" fill="#2E2E38"/>
<path d="M18.9467 4.25977H9.05332C6.17165 4.25977 3.83832 6.60477 3.83832 9.47477V20.4531C3.83832 23.3231 6.18332 25.6681 9.05332 25.6681H18.935C21.8167 25.6681 24.15 23.3231 24.15 20.4531V9.47477C24.1617 6.5931 21.8167 4.25977 18.9467 4.25977Z" fill="#2E2E38"/>
<path d="M12.6116 18.6091C12.39 18.6091 12.1683 18.5274 11.9933 18.3524L10.2433 16.6024C9.90498 16.2641 9.90498 15.7041 10.2433 15.3657C10.5816 15.0274 11.1416 15.0274 11.48 15.3657L12.6116 16.4974L16.66 12.4491C16.9983 12.1107 17.5583 12.1107 17.8966 12.4491C18.235 12.7874 18.235 13.3474 17.8966 13.6857L13.23 18.3524C13.0666 18.5274 12.8333 18.6091 12.6116 18.6091Z" fill="#FEE433"/>
</svg>
