<svg width="28" height="28" viewBox="0 0 28 28" fill="none" xmlns="http://www.w3.org/2000/svg">
<path opacity="0.4" d="M19.5416 4.15398V2.33398C19.5416 1.85565 19.145 1.45898 18.6666 1.45898C18.1883 1.45898 17.7916 1.85565 17.7916 2.33398V4.08398H10.2083V2.33398C10.2083 1.85565 9.81165 1.45898 9.33331 1.45898C8.85498 1.45898 8.45831 1.85565 8.45831 2.33398V4.15398C5.30831 4.44565 3.77998 6.32398 3.54665 9.11232C3.52332 9.45065 3.80332 9.73065 4.12998 9.73065H23.87C24.2083 9.73065 24.4883 9.43898 24.4533 9.11232C24.22 6.32398 22.6916 4.44565 19.5416 4.15398Z" fill="#2E2E38"/>
<path d="M24.5 12.6481V14.6781C24.5 15.3897 23.87 15.9381 23.17 15.8214C22.8433 15.7747 22.505 15.7397 22.1667 15.7397C18.6317 15.7397 15.75 18.6214 15.75 22.1564C15.75 22.6931 15.96 23.4398 16.1817 24.1164C16.4383 24.8748 15.8783 25.6564 15.0733 25.6564H9.33332C5.24998 25.6564 3.49998 23.3231 3.49998 19.8231V12.6364C3.49998 11.9947 4.02498 11.4697 4.66665 11.4697H23.3333C23.975 11.4814 24.5 12.0064 24.5 12.6481Z" fill="#2E2E38"/>
<path d="M22.1667 17.501C19.5883 17.501 17.5 19.5893 17.5 22.1676C17.5 23.0426 17.745 23.871 18.1767 24.571C18.9817 25.9243 20.4633 26.8343 22.1667 26.8343C23.87 26.8343 25.3516 25.9243 26.1566 24.571C26.5883 23.871 26.8333 23.0426 26.8333 22.1676C26.8333 19.5893 24.745 17.501 22.1667 17.501ZM24.5817 21.666L22.0967 23.9643C21.9333 24.116 21.7117 24.1976 21.5017 24.1976C21.28 24.1976 21.0583 24.116 20.8833 23.941L19.7283 22.786C19.39 22.4476 19.39 21.8876 19.7283 21.5493C20.0667 21.211 20.6267 21.211 20.965 21.5493L21.525 22.1093L23.3917 20.3826C23.7417 20.056 24.3017 20.0793 24.6283 20.4293C24.955 20.7793 24.9317 21.3277 24.5817 21.666Z" fill="#2E2E38"/>
<path d="M22.0967 23.9641L24.5817 21.6658C24.9317 21.3275 24.955 20.7791 24.6283 20.4291C24.3017 20.0791 23.7417 20.0558 23.3917 20.3825L21.525 22.1091L20.965 21.5491C20.6267 21.2108 20.0667 21.2108 19.7283 21.5491C19.39 21.8875 19.39 22.4475 19.7283 22.7858L20.8833 23.9408C21.0583 24.1158 21.28 24.1974 21.5017 24.1974C21.7117 24.1974 21.9333 24.1158 22.0967 23.9641Z" fill="#FEE433"/>
<path d="M9.91665 17.5004C9.61332 17.5004 9.30999 17.372 9.08832 17.162C8.87832 16.9404 8.74998 16.6371 8.74998 16.3337C8.74998 16.0304 8.87832 15.7271 9.08832 15.5054C9.35665 15.2371 9.76498 15.1087 10.15 15.1904C10.22 15.202 10.29 15.2254 10.36 15.2604C10.43 15.2837 10.5 15.3187 10.57 15.3654C10.6283 15.4121 10.6867 15.4587 10.745 15.5054C10.955 15.7271 11.0833 16.0304 11.0833 16.3337C11.0833 16.6371 10.955 16.9404 10.745 17.162C10.6867 17.2087 10.6283 17.2554 10.57 17.302C10.5 17.3487 10.43 17.3837 10.36 17.4071C10.29 17.4421 10.22 17.4654 10.15 17.4771C10.0683 17.4887 9.98665 17.5004 9.91665 17.5004Z" fill="#FEE433"/>
<path d="M14 17.5014C13.6966 17.5014 13.3933 17.373 13.1716 17.163C12.9616 16.9413 12.8333 16.638 12.8333 16.3347C12.8333 16.0314 12.9616 15.728 13.1716 15.5064C13.615 15.0747 14.3966 15.0747 14.8283 15.5064C15.0383 15.728 15.1666 16.0314 15.1666 16.3347C15.1666 16.638 15.0383 16.9413 14.8283 17.163C14.6066 17.373 14.3033 17.5014 14 17.5014Z" fill="#FEE433"/>
<path d="M9.91665 21.584C9.61332 21.584 9.30999 21.4557 9.08832 21.2457C8.87832 21.024 8.74998 20.7207 8.74998 20.4173C8.74998 20.114 8.87832 19.8107 9.08832 19.589C9.20499 19.484 9.32165 19.4023 9.47332 19.344C9.90499 19.1573 10.4183 19.2623 10.745 19.589C10.955 19.8107 11.0833 20.114 11.0833 20.4173C11.0833 20.7207 10.955 21.024 10.745 21.2457C10.5233 21.4557 10.22 21.584 9.91665 21.584Z" fill="#FEE433"/>
</svg>
