<svg width="28" height="28" viewBox="0 0 28 28" fill="none" xmlns="http://www.w3.org/2000/svg">
<path fill-rule="evenodd" clip-rule="evenodd" d="M14.6507 2.89838C14.2762 2.57751 13.7237 2.57752 13.3493 2.89838L1.68702 12.8916C1.31978 13.2063 1.27731 13.7592 1.59218 14.1262C1.90682 14.4931 2.4592 14.5355 2.82617 14.221L4.19181 13.0508V24.6602C4.19181 25.2124 4.63952 25.6602 5.19181 25.6602H22.8116C23.3639 25.6602 23.8116 25.2124 23.8116 24.6602V13.0532L25.1738 14.2208C25.5407 14.5354 26.0932 14.493 26.4078 14.1262C26.7227 13.7591 26.6802 13.2063 26.313 12.8917L14.6507 2.89838Z" fill="#2E2E38"/>
<path d="M15.5 16.5V21.5C15.5 22.3284 14.8284 23 14 23C13.1716 23 12.5 22.3284 12.5 21.5V16.5C12.5 15.6716 13.1716 15 14 15C14.8284 15 15.5 15.6716 15.5 16.5Z" fill="#FEE433"/>
</svg>
