<svg width="28" height="28" viewBox="0 0 28 28" fill="none" xmlns="http://www.w3.org/2000/svg">
<path d="M4.28166 2.91797V16.883C4.28166 18.0263 4.81833 19.1113 5.74 19.7996L11.8183 24.3496C13.1133 25.318 14.8983 25.318 16.1933 24.3496L22.2716 19.7996C23.1933 19.1113 23.73 18.0263 23.73 16.883V2.91797H4.28166Z" fill="#2E2E38"/>
<path d="M25.6666 3.79297H2.33331C1.85498 3.79297 1.45831 3.3963 1.45831 2.91797C1.45831 2.43964 1.85498 2.04297 2.33331 2.04297H25.6666C26.145 2.04297 26.5416 2.43964 26.5416 2.91797C26.5416 3.3963 26.145 3.79297 25.6666 3.79297Z" fill="#ABABAF"/>
<path d="M18.6666 10.209H9.33331C8.85498 10.209 8.45831 9.81232 8.45831 9.33398C8.45831 8.85565 8.85498 8.45898 9.33331 8.45898H18.6666C19.145 8.45898 19.5416 8.85565 19.5416 9.33398C19.5416 9.81232 19.145 10.209 18.6666 10.209Z" fill="#FEE433"/>
<path d="M18.6666 16.043H9.33331C8.85498 16.043 8.45831 15.6463 8.45831 15.168C8.45831 14.6896 8.85498 14.293 9.33331 14.293H18.6666C19.145 14.293 19.5416 14.6896 19.5416 15.168C19.5416 15.6463 19.145 16.043 18.6666 16.043Z" fill="#FEE433"/>
</svg>
