<svg width="20" height="20" viewBox="0 0 20 20" fill="none" xmlns="http://www.w3.org/2000/svg">
<mask id="mask0_947_3729" style="mask-type:alpha" maskUnits="userSpaceOnUse" x="0" y="0" width="20" height="20">
<rect width="20" height="20" fill="#FFE600"/>
</mask>
<g mask="url(#mask0_947_3729)">
<path d="M16.3959 16.9633L16.9151 16.4442L15.3686 14.8977V12.5965H14.6315V15.199L16.3959 16.9633ZM4.42318 17.0835C4.00762 17.0835 3.65262 16.9364 3.35818 16.6421C3.06387 16.3476 2.91672 15.9926 2.91672 15.5771V4.42333C2.91672 4.00777 3.06387 3.65277 3.35818 3.35833C3.65262 3.06402 4.00762 2.91687 4.42318 2.91687H15.5769C15.9925 2.91687 16.3475 3.06402 16.6419 3.35833C16.9362 3.65277 17.0834 4.00777 17.0834 4.42333V9.69416C16.8782 9.60652 16.6728 9.53229 16.4671 9.47145C16.2614 9.41048 16.0502 9.36187 15.8334 9.32562V4.42333C15.8334 4.35916 15.8067 4.30041 15.7532 4.24708C15.6998 4.19361 15.6411 4.16687 15.5769 4.16687H4.42318C4.35901 4.16687 4.30026 4.19361 4.24693 4.24708C4.19345 4.30041 4.16672 4.35916 4.16672 4.42333V15.5771C4.16672 15.6412 4.19345 15.7 4.24693 15.7533C4.30026 15.8068 4.35901 15.8335 4.42318 15.8335H9.30464C9.33561 16.0642 9.38151 16.2824 9.44234 16.4881C9.50332 16.6938 9.57755 16.8923 9.66505 17.0835H4.42318ZM4.16672 15.8335V4.16687V9.32562V9.26312V15.8335ZM6.04172 13.8623H9.38943C9.42582 13.6455 9.47977 13.4342 9.5513 13.2285C9.62297 13.0228 9.70095 12.8175 9.78526 12.6125H6.04172V13.8623ZM6.04172 10.6252H11.3255C11.6844 10.3208 12.0673 10.0657 12.4744 9.85999C12.8815 9.6543 13.3174 9.50819 13.7821 9.42166V9.3752H6.04172V10.6252ZM6.04172 7.38791H13.9584V6.13812H6.04172V7.38791ZM15.0001 18.7983C13.9595 18.7983 13.0744 18.4335 12.3446 17.7037C11.6149 16.974 11.2501 16.0889 11.2501 15.0483C11.2501 14.0078 11.6149 13.1226 12.3446 12.3929C13.0744 11.6632 13.9595 11.2983 15.0001 11.2983C16.0406 11.2983 16.9257 11.6632 17.6555 12.3929C18.3852 13.1226 18.7501 14.0078 18.7501 15.0483C18.7501 16.0889 18.3852 16.974 17.6555 17.7037C16.9257 18.4335 16.0406 18.7983 15.0001 18.7983Z" fill="white"/>
</g>
</svg>
