<svg width="20" height="20" viewBox="0 0 20 20" fill="none" xmlns="http://www.w3.org/2000/svg">
<mask id="mask0_947_29211" style="mask-type:alpha" maskUnits="userSpaceOnUse" x="0" y="0" width="20" height="20">
<rect width="20" height="20" fill="#D9D9D9"/>
</mask>
<g mask="url(#mask0_947_29211)">
<path d="M13.3814 8.33317C13.5585 8.33317 13.7069 8.27324 13.8267 8.15338C13.9465 8.03352 14.0064 7.88505 14.0064 7.70796C14.0064 7.53074 13.9465 7.38234 13.8267 7.26275C13.7069 7.14303 13.5585 7.08317 13.3814 7.08317H10.625C10.4479 7.08317 10.2994 7.1431 10.1796 7.26296C10.0599 7.38282 9.99999 7.5313 9.99999 7.70838C9.99999 7.8856 10.0599 8.034 10.1796 8.15359C10.2994 8.27331 10.4479 8.33317 10.625 8.33317H13.3814ZM13.3814 12.9165C13.5585 12.9165 13.7069 12.8566 13.8267 12.7367C13.9465 12.6169 14.0064 12.4684 14.0064 12.2913C14.0064 12.1141 13.9465 11.9657 13.8267 11.8461C13.7069 11.7264 13.5585 11.6665 13.3814 11.6665H10.625C10.4479 11.6665 10.2994 11.7264 10.1796 11.8463C10.0599 11.9662 9.99999 12.1146 9.99999 12.2917C9.99999 12.4689 10.0599 12.6173 10.1796 12.7369C10.2994 12.8566 10.4479 12.9165 10.625 12.9165H13.3814ZM7.49999 9.05421C7.87013 9.05421 8.187 8.92241 8.45062 8.6588C8.71423 8.39518 8.84603 8.07831 8.84603 7.70817C8.84603 7.33803 8.71423 7.02116 8.45062 6.75755C8.187 6.49393 7.87013 6.36213 7.49999 6.36213C7.12985 6.36213 6.81298 6.49393 6.54937 6.75755C6.28575 7.02116 6.15395 7.33803 6.15395 7.70817C6.15395 8.07831 6.28575 8.39518 6.54937 8.6588C6.81298 8.92241 7.12985 9.05421 7.49999 9.05421ZM7.49999 13.6375C7.87013 13.6375 8.187 13.5057 8.45062 13.2421C8.71423 12.9785 8.84603 12.6616 8.84603 12.2915C8.84603 11.9214 8.71423 11.6045 8.45062 11.3409C8.187 11.0773 7.87013 10.9455 7.49999 10.9455C7.12985 10.9455 6.81298 11.0773 6.54937 11.3409C6.28575 11.6045 6.15395 11.9214 6.15395 12.2915C6.15395 12.6616 6.28575 12.9785 6.54937 13.2421C6.81298 13.5057 7.12985 13.6375 7.49999 13.6375ZM4.42311 17.0832C4.00214 17.0832 3.64582 16.9373 3.35416 16.6457C3.06249 16.354 2.91666 15.9977 2.91666 15.5767V4.42296C2.91666 4.00199 3.06249 3.64567 3.35416 3.354C3.64582 3.06234 4.00214 2.9165 4.42311 2.9165H15.5769C15.9978 2.9165 16.3542 3.06234 16.6458 3.354C16.9375 3.64567 17.0833 4.00199 17.0833 4.42296V15.5767C17.0833 15.9977 16.9375 16.354 16.6458 16.6457C16.3542 16.9373 15.9978 17.0832 15.5769 17.0832H4.42311Z" fill="#C4C4CD"/>
</g>
</svg>
