<svg width="20" height="20" viewBox="0 0 20 20" fill="none" xmlns="http://www.w3.org/2000/svg">
<mask id="mask0_947_27360" style="mask-type:alpha" maskUnits="userSpaceOnUse" x="0" y="0" width="20" height="20">
<rect width="20" height="20" fill="#D9D9D9"/>
</mask>
<g mask="url(#mask0_947_27360)">
<path d="M4.42315 15.4168C4.00884 15.4168 3.65419 15.2693 3.35919 14.9743C3.06419 14.6793 2.91669 14.3247 2.91669 13.9104V12.1316C2.91669 11.7173 3.06419 11.3627 3.35919 11.0677C3.65419 10.7727 4.00884 10.6252 4.42315 10.6252H15.5769C15.9912 10.6252 16.3459 10.7727 16.6409 11.0677C16.9359 11.3627 17.0834 11.7173 17.0834 12.1316V13.9104C17.0834 14.3247 16.9359 14.6793 16.6409 14.9743C16.3459 15.2693 15.9912 15.4168 15.5769 15.4168H4.42315ZM4.42315 9.37516C4.00884 9.37516 3.65419 9.22766 3.35919 8.93266C3.06419 8.63766 2.91669 8.28301 2.91669 7.8687V6.08995C2.91669 5.67565 3.06419 5.321 3.35919 5.026C3.65419 4.731 4.00884 4.5835 4.42315 4.5835H15.5769C15.9912 4.5835 16.3459 4.731 16.6409 5.026C16.9359 5.321 17.0834 5.67565 17.0834 6.08995V7.8687C17.0834 8.28301 16.9359 8.63766 16.6409 8.93266C16.3459 9.22766 15.9912 9.37516 15.5769 9.37516H4.42315Z" fill="#C4C4CD"/>
</g>
</svg>
