<svg width="20" height="20" viewBox="0 0 20 20" fill="none" xmlns="http://www.w3.org/2000/svg">
<mask id="mask0_1061_3647" style="mask-type:alpha" maskUnits="userSpaceOnUse" x="0" y="0" width="20" height="20">
<rect width="20" height="20" fill="#D9D9D9"/>
</mask>
<g mask="url(#mask0_1061_3647)">
<path d="M9.26275 11.7308V10.2565H10.7369V11.7308H9.26275ZM5.92942 11.7308V10.2565H7.40359V11.7308H5.92942ZM12.5961 11.7308V10.2565H14.0703V11.7308H12.5961ZM9.26275 15V13.5256H10.7369V15H9.26275ZM5.92942 15V13.5256H7.40359V15H5.92942ZM12.5961 15V13.5256H14.0703V15H12.5961ZM2.9165 17.9167V3.75001H5.57671V1.9873H6.8588V3.75001H13.173V1.9873H14.423V3.75001H17.0832V17.9167H2.9165ZM4.1665 16.6667H15.8332V8.5898H4.1665V16.6667ZM4.1665 7.3398H15.8332V5.00001H4.1665V7.3398Z" fill="#2E2E38"/>
</g>
</svg>
