<svg width="32" height="32" viewBox="0 0 32 32" fill="none" xmlns="http://www.w3.org/2000/svg">
<mask id="mask0_970_36526" style="mask-type:alpha" maskUnits="userSpaceOnUse" x="0" y="0" width="32" height="32">
<rect width="32" height="32" fill="#D9D9D9"/>
</mask>
<g mask="url(#mask0_970_36526)">
<path d="M9.42181 23.6105C8.92435 24.0846 8.14229 24.0846 7.64484 23.6105C7.11238 23.1031 7.11238 22.2535 7.64484 21.746L14.1333 15.5621L7.64484 9.37828C7.11238 8.87082 7.11238 8.02123 7.64484 7.51377C8.14229 7.03967 8.92435 7.03966 9.42181 7.51377L16 13.7831L22.5782 7.51377C23.0756 7.03966 23.8577 7.03967 24.3551 7.51377C24.8876 8.02123 24.8876 8.87082 24.3551 9.37828L17.8667 15.5621L24.3551 21.746C24.8876 22.2535 24.8876 23.1031 24.3551 23.6105C23.8577 24.0846 23.0756 24.0846 22.5782 23.6105L16 17.3412L9.42181 23.6105Z" fill="#2E2E38"/>
</g>
</svg>
