<svg width="20" height="20" viewBox="0 0 20 20" fill="none" xmlns="http://www.w3.org/2000/svg">
<g opacity="0.5">
<mask id="mask0_947_21438" style="mask-type:alpha" maskUnits="userSpaceOnUse" x="0" y="0" width="20" height="20">
<rect width="20" height="20" fill="#D9D9D9"/>
</mask>
<g mask="url(#mask0_947_21438)">
<path d="M16.285 17.1474L11.051 11.9133C10.6343 12.2573 10.1552 12.5265 9.61351 12.721C9.07184 12.9154 8.51149 13.0126 7.93247 13.0126C6.50816 13.0126 5.30275 12.5195 4.31622 11.5333C3.32969 10.547 2.83643 9.34188 2.83643 7.91785C2.83643 6.49396 3.32955 5.2884 4.3158 4.30118C5.30205 3.3141 6.50719 2.82056 7.93122 2.82056C9.35511 2.82056 10.5607 3.31382 11.5479 4.30035C12.535 5.28688 13.0285 6.49229 13.0285 7.9166C13.0285 8.51174 12.9286 9.08014 12.7289 9.62181C12.5291 10.1635 12.2625 10.6346 11.9291 11.0351L17.1631 16.2691L16.285 17.1474ZM7.93247 11.7628C9.00622 11.7628 9.91566 11.3902 10.6608 10.6449C11.4061 9.89979 11.7787 8.99035 11.7787 7.9166C11.7787 6.84285 11.4061 5.9334 10.6608 5.18826C9.91566 4.44299 9.00622 4.07035 7.93247 4.07035C6.85872 4.07035 5.94927 4.44299 5.20413 5.18826C4.45886 5.9334 4.08622 6.84285 4.08622 7.9166C4.08622 8.99035 4.45886 9.89979 5.20413 10.6449C5.94927 11.3902 6.85872 11.7628 7.93247 11.7628Z" fill="#2E2E38"/>
</g>
</g>
</svg>
